<?xml version="1.0" standalone="no"?>
<!DOCTYPE svg PUBLIC "-//W3C//DTD SVG 20010904//EN"
 "http://www.w3.org/TR/2001/REC-SVG-20010904/DTD/svg10.dtd">
<svg version="1.0" xmlns="http://www.w3.org/2000/svg"
 width="493.000000pt" height="498.000000pt" viewBox="0 0 493.000000 498.000000"
 preserveAspectRatio="xMidYMid meet">

<g transform="translate(0.000000,498.000000) scale(0.100000,-0.100000)"
fill="#000000" stroke="none">
<path d="M2300 4854 c-735 -68 -1369 -438 -1770 -1035 -190 -282 -311 -590
-371 -945 -30 -174 -33 -521 -6 -694 41 -261 102 -460 212 -688 188 -389 459
-701 815 -937 851 -565 1968 -516 2770 123 643 513 975 1355 854 2172 -98 661
-469 1247 -1024 1615 -294 195 -607 316 -960 370 -102 15 -428 27 -520 19z
m391 -204 c386 -39 751 -180 1065 -412 129 -95 363 -327 449 -446 425 -585
537 -1309 307 -1982 -69 -199 -177 -403 -306 -578 -100 -135 -311 -347 -441
-443 -571 -422 -1288 -540 -1955 -320 -642 212 -1146 711 -1365 1351 -228 669
-112 1405 313 1977 85 113 322 350 435 435 306 227 677 374 1052 416 114 13
325 14 446 2z"/>
<path d="M2376 4509 c-114 -28 -226 -120 -285 -235 -36 -69 -36 -69 -81 -71
-223 -12 -374 -138 -412 -343 -38 -203 125 -429 324 -448 l48 -5 0 -142 c0
-78 3 -169 6 -202 l7 -61 71 24 c138 48 260 67 416 68 147 0 232 -12 442 -65
42 -10 81 -19 87 -19 8 0 11 63 11 199 l0 198 40 7 c128 20 236 99 292 214 31
63 33 72 33 177 0 101 -2 114 -28 163 -76 144 -217 232 -374 232 l-52 0 -32
68 c-43 89 -127 172 -216 214 -60 28 -80 33 -163 35 -52 1 -112 -2 -134 -8z
m249 -153 c97 -48 160 -141 174 -257 5 -39 11 -73 14 -75 2 -2 33 5 68 16 75
23 156 26 203 6 47 -20 113 -82 139 -130 31 -58 30 -174 0 -232 -30 -57 -103
-119 -158 -134 -55 -15 -138 -9 -187 14 -20 10 -42 15 -47 11 -19 -11 -12 -52
13 -82 46 -56 49 -68 41 -200 -7 -121 -8 -125 -29 -119 -166 46 -499 56 -661
19 -66 -15 -92 -18 -97 -9 -4 6 -8 65 -8 131 0 117 1 121 30 164 27 40 39 89
24 104 -3 3 -22 -4 -42 -16 -52 -31 -180 -31 -237 0 -108 58 -164 184 -131
297 22 76 70 135 136 169 49 25 64 28 130 25 53 -2 87 -10 117 -25 l43 -23 4
23 c3 12 7 41 11 65 18 139 96 236 221 276 70 22 160 15 229 -18z"/>
<path d="M4277 3343 c-102 -82 -122 -119 -416 -763 -104 -228 -255 -554 -336
-725 -402 -848 -445 -942 -451 -985 -5 -37 -1 -54 23 -99 62 -119 212 -138
300 -38 37 42 45 68 212 642 60 209 117 404 126 433 24 79 38 82 185 44 151
-40 175 -41 194 -4 21 41 91 262 130 412 67 256 100 471 112 722 6 142 -8 374
-25 391 -4 4 -29 -9 -54 -30z m-667 -1653 c39 -39 11 -110 -44 -110 -27 0 -66
42 -66 71 0 27 36 59 65 59 14 0 34 -9 45 -20z m-300 -780 c35 -35 21 -93 -25
-104 -46 -12 -93 33 -80 74 16 51 69 66 105 30z"/>
<path d="M943 3243 c-7 -2 -13 -11 -13 -19 0 -8 43 -122 95 -253 52 -131 95
-250 95 -264 0 -27 -32 -57 -61 -57 -31 0 -51 39 -143 278 -51 132 -96 245
-100 251 -10 15 -31 14 -45 -3 -10 -12 4 -64 68 -258 45 -134 81 -256 81 -270
0 -28 -31 -58 -61 -58 -33 0 -53 44 -128 281 -79 248 -95 280 -126 248 -14
-14 -8 -47 70 -349 60 -237 92 -345 110 -372 34 -52 93 -92 172 -119 97 -32
141 -79 182 -197 l33 -94 -22 -15 c-19 -13 -20 -17 -7 -32 27 -30 136 -406
252 -870 36 -145 72 -275 79 -290 20 -38 65 -78 108 -95 140 -59 293 58 275
211 -5 46 -7 51 -129 278 -150 279 -401 778 -407 809 -5 24 -13 32 -32 34 -23
3 -31 15 -63 98 -50 126 -54 157 -22 214 73 132 78 148 74 223 -3 68 -10 87
-142 367 -76 162 -146 303 -154 313 -16 18 -19 19 -39 10z"/>
<path d="M2182 2915 c-64 -53 -68 -137 -11 -227 34 -54 43 -109 26 -155 -7
-18 -5 -21 13 -16 11 3 31 19 45 35 36 42 33 87 -12 167 -41 75 -48 135 -20
189 15 27 15 32 3 32 -8 0 -28 -11 -44 -25z"/>
<path d="M2388 2920 c-32 -25 -58 -79 -58 -119 0 -18 18 -66 41 -109 41 -77
46 -115 25 -164 -11 -25 27 -12 59 19 37 38 34 97 -10 180 -38 72 -45 129 -20
173 8 14 14 28 15 33 0 14 -27 7 -52 -13z"/>
<path d="M2598 2924 c-70 -38 -80 -134 -25 -235 38 -68 47 -122 27 -160 -13
-24 -3 -24 37 1 21 13 36 32 44 58 11 37 9 45 -30 129 -46 100 -50 132 -22
186 21 40 13 46 -31 21z"/>
<path d="M2783 2907 c-31 -29 -37 -41 -41 -90 -4 -50 -1 -62 33 -123 39 -69
47 -123 25 -163 -13 -25 -8 -26 30 -6 33 17 60 61 60 98 0 13 -18 59 -40 102
-45 89 -48 112 -20 173 24 54 6 57 -47 9z"/>
<path d="M1630 2405 c-6 -8 -10 -22 -8 -32 3 -17 44 -18 845 -21 l842 -2 7 22
c15 49 29 48 -852 48 -706 0 -823 -2 -834 -15z"/>
<path d="M1727 2253 c-4 -3 -7 -42 -7 -85 l0 -78 -60 0 c-49 0 -61 3 -70 20
-15 28 -55 36 -85 16 -20 -13 -25 -25 -25 -57 0 -79 41 -110 154 -114 39 -1
74 -3 79 -4 4 0 7 -54 7 -120 0 -145 11 -207 52 -291 68 -141 218 -248 405
-290 172 -39 455 -36 621 6 136 34 266 123 337 230 62 93 77 149 84 319 l6
150 87 5 c67 4 93 10 115 26 57 43 51 127 -11 149 -25 8 -31 6 -50 -18 -19
-24 -28 -27 -83 -27 l-62 0 -3 83 -3 82 -741 3 c-407 1 -744 -1 -747 -5z m163
-388 c0 -159 5 -296 10 -311 12 -31 12 -34 0 -34 -5 0 -22 21 -37 48 l-28 47
-3 268 -3 267 30 0 30 0 1 -285z"/>
</g>
</svg>
